<?xml version="1.0" encoding="utf-8"?>
<!-- Generator: Adobe Illustrator 16.0.4, SVG Export Plug-In . SVG Version: 6.00 Build 0)  -->
<!DOCTYPE svg PUBLIC "-//W3C//DTD SVG 1.1//EN" "http://www.w3.org/Graphics/SVG/1.1/DTD/svg11.dtd">
<svg version="1.1" id="Layer_1" xmlns="http://www.w3.org/2000/svg" xmlns:xlink="http://www.w3.org/1999/xlink" x="0px" y="0px"
	 width="500.872px" height="332.946px" viewBox="0 0 500.872 332.946" enable-background="new 0 0 500.872 332.946"
	 xml:space="preserve">
<g transform="translate(0,-952.36218)">
	<path fill="#1E1622" d="M248.662,952.405c-41.224,3.375-71.254,16.026-92.043,34.808c-6.173,5.577-11.436,11.659-15.969,18.121
		c-0.707,0.407-1.368,0.889-1.974,1.436L21.336,1122.316c-0.121,0.116-0.239,0.235-0.355,0.356
		c-53.413,55.938,0.437,172.104,101.911,154.121c0.059,0,0.118,0,0.177,0c12.501-2.278,22.118-8.814,28.527-17.404
		c10.644,16.108,25.747,24.968,41.806,25.837c19.953,1.08,39.529-8.62,56.158-24.042h1.794
		c16.63,15.423,36.205,25.122,56.159,24.042c16.064-0.869,30.98-9.895,41.625-26.016c6.416,8.601,16.188,15.301,28.708,17.583
		c101.449,17.982,155.486-98.2,102.09-154.121c-0.116-0.122-0.235-0.24-0.356-0.356l-117.52-115.547
		c-0.549-0.537-1.15-1.018-1.795-1.436c-4.535-6.47-9.789-12.538-15.968-18.121c-20.79-18.786-50.808-31.435-92.042-34.808
		c-0.657-0.057-1.317-0.057-1.975,0c-0.06,0-0.119,0-0.178,0c-0.479-0.029-0.958-0.029-1.436,0H248.662z M250.455,975.37
		c37.495,3.086,62.001,14.062,78.407,28.887c16.537,14.944,25.354,34.192,29.425,56.158c6.902,37.247-0.877,80.996-8.254,113.394
		c-9.731-13.692-23.403-23.863-37.14-31.578c-17.054-9.607-28.239-22.156-26.912-49.161c0.76-15.69,2.862-32.672,0.717-48.084
		c-1.073-7.707-3.26-15.397-8.433-21.89c-5.173-6.492-13.493-10.811-22.786-11.841l-3.768-0.538c-0.835-0.092-1.677-0.092-2.513,0
		l-3.768,0.538c-9.292,1.031-17.613,5.348-22.786,11.841c-5.172,6.493-7.364,14.182-8.433,21.89
		c-2.138,15.406-0.068,32.396,0.718,48.084c1.272,26.992-10.046,39.557-27.093,49.161c-13.722,7.707-27.229,17.727-36.96,31.399
		c-7.388-32.389-15.338-75.982-8.433-113.215c4.073-21.965,12.882-41.214,29.425-56.158
		C188.28,989.432,212.96,978.455,250.455,975.37z M250.455,1033.682l2.513,0.359c4.483,0.504,5.895,1.574,7.355,3.409
		c1.468,1.841,2.847,5.252,3.589,10.586c1.484,10.667-0.092,27.125-0.896,43.778c-1.706,34.764,16.574,57.942,38.574,70.333
		c0.06,0,0.119,0,0.179,0c13.357,7.5,25.365,17.458,32.115,28.886c6.751,11.427,9.151,24.24,2.691,42.343
		c-7.809,21.853-18.271,28.235-30.322,28.887c-12.052,0.652-27.985-6.447-42.163-20.633c-2.135-2.159-5.036-3.385-8.072-3.409
		h-11.124c-3.036,0.024-5.939,1.25-8.074,3.409c-14.177,14.186-30.111,21.285-42.164,20.633
		c-12.051-0.651-22.512-7.034-30.321-28.886c-6.458-18.103-4.059-30.916,2.691-42.343c6.751-11.428,18.757-21.385,32.116-28.886
		c22.003-12.392,40.405-35.393,38.755-70.154c0-0.06,0-0.12,0-0.179c-0.835-16.65-2.377-33.113-0.897-43.778
		c0.74-5.333,2.123-8.746,3.588-10.586c1.459-1.831,2.707-2.904,7.178-3.409h0.178L250.455,1033.682L250.455,1033.682z"/>
	<path fill="#1E1622" d="M177.924,1061.334c-11.587,0-21.349,9.639-21.349,21.276s9.762,21.276,21.349,21.276
		c11.585,0,21.398-9.567,21.398-21.276S189.509,1061.334,177.924,1061.334z"/>
	<path fill="#1E1622" d="M322.894,1061.334c-11.586,0-21.35,9.639-21.35,21.276s9.764,21.276,21.35,21.276
		c11.585,0,21.349-9.639,21.349-21.276C344.242,1070.974,334.479,1061.334,322.894,1061.334L322.894,1061.334z"/>
	<path fill="#1E1622" d="M250.431,1144.766c-15.701,0-28.729,12.949-28.729,28.686c0,15.736,12.992,28.729,28.729,28.729
		s28.686-13.028,28.686-28.729C279.116,1157.751,266.132,1144.766,250.431,1144.766z"/>
</g>
</svg>
